<?xml version="1.0" encoding="UTF-8" standalone="no"?>
<svg
   xmlns:dc="http://purl.org/dc/elements/1.1/"
   xmlns:cc="http://creativecommons.org/ns#"
   xmlns:rdf="http://www.w3.org/1999/02/22-rdf-syntax-ns#"
   xmlns:svg="http://www.w3.org/2000/svg"
   xmlns="http://www.w3.org/2000/svg"
   xmlns:sodipodi="http://sodipodi.sourceforge.net/DTD/sodipodi-0.dtd"
   xmlns:inkscape="http://www.inkscape.org/namespaces/inkscape"
   id="master-artboard"
   viewBox="0 0 99 98.974998"
   version="1.1"
   x="0px"
   y="0px"
   width="99"
   height="98.974998"
   enable-background="new 0 0 1400 980"
   inkscape:version="0.91 r13725"
   sodipodi:docname="search.svg">
  <metadata
     id="metadata17">
    <rdf:RDF>
      <cc:Work
         rdf:about="">
        <dc:format>image/svg+xml</dc:format>
        <dc:type
           rdf:resource="http://purl.org/dc/dcmitype/StillImage" />
        <dc:title />
      </cc:Work>
    </rdf:RDF>
  </metadata>
  <defs
     id="defs15" />
  <sodipodi:namedview
     pagecolor="#ffffff"
     bordercolor="#666666"
     borderopacity="1"
     objecttolerance="10"
     gridtolerance="10"
     guidetolerance="10"
     inkscape:pageopacity="0"
     inkscape:pageshadow="2"
     inkscape:window-width="1366"
     inkscape:window-height="705"
     id="namedview13"
     showgrid="false"
     inkscape:zoom="3.8530612"
     inkscape:cx="-22.71714"
     inkscape:cy="65.936676"
     inkscape:window-x="1358"
     inkscape:window-y="-8"
     inkscape:window-maximized="1"
     inkscape:current-layer="master-artboard"
     fit-margin-top="0"
     fit-margin-left="0"
     fit-margin-right="0"
     fit-margin-bottom="0" />
  <path
     style="fill:#000000;fill-opacity:1"
     inkscape:connector-curvature="0"
     d="m 65.375,11.175 c -14.9,-14.9 -39.3,-14.9 -54.2,0 -14.9,14.9 -14.9,39.3 0,54.2 7.5,7.5 17.3,11.2 27.1,11.2 8.6,0 17.2,-2.9 24.2,-8.6 l 29.8,29.8 c 0.8,0.8 1.8,1.2 2.8,1.2 1,0 2,-0.4 2.8,-1.2 1.5,-1.5 1.5,-4 0,-5.6 l -29.8,-29.8 c 12.2,-14.9 11.3,-37.2 -2.7,-51.2 z m -5.5,48.7 c -11.9,11.9 -31.2,11.9 -43.1,0 -11.9,-11.9 -11.9,-31.2 0,-43.1 5.9,-5.9 13.7,-8.9 21.5,-8.9 7.8,0 15.6,3 21.5,8.9 11.9,11.9 11.9,31.2 0.1,43.1 z"
     id="XMLID_116_" />
</svg>
